<mxfile>
    <diagram id="AoEhoH7u9xtHg-p9ADBq" name="Page-1">
        <mxGraphModel dx="758" dy="518" grid="1" gridSize="10" guides="1" tooltips="1" connect="1" arrows="1" fold="1" page="1" pageScale="1" pageWidth="1169" pageHeight="827" math="0" shadow="0">
            <root>
                <mxCell id="0"/>
                <mxCell id="1" parent="0"/>
                <mxCell id="DlJ1sKXZmMVKL5MGsRdI-1" value="This flowchart can be applicable for both for loop and while loop in java" style="text;html=1;strokeColor=#A50040;fillColor=#d80073;align=center;verticalAlign=middle;whiteSpace=wrap;rounded=0;fontFamily=Comic Sans MS;fontSize=30;fontColor=#ffffff;" parent="1" vertex="1">
                    <mxGeometry x="290" y="170" width="570" height="140" as="geometry"/>
                </mxCell>
                <mxCell id="DlJ1sKXZmMVKL5MGsRdI-4" style="edgeStyle=orthogonalEdgeStyle;rounded=0;orthogonalLoop=1;jettySize=auto;html=1;entryX=0.5;entryY=0;entryDx=0;entryDy=0;fontFamily=Comic Sans MS;fontSize=26;" parent="1" source="DlJ1sKXZmMVKL5MGsRdI-2" target="DlJ1sKXZmMVKL5MGsRdI-3" edge="1">
                    <mxGeometry relative="1" as="geometry"/>
                </mxCell>
                <mxCell id="DlJ1sKXZmMVKL5MGsRdI-2" value="Entry of the loop" style="rounded=1;whiteSpace=wrap;html=1;fontFamily=Comic Sans MS;fontSize=26;" parent="1" vertex="1">
                    <mxGeometry x="515" y="350" width="140" height="100" as="geometry"/>
                </mxCell>
                <mxCell id="DlJ1sKXZmMVKL5MGsRdI-6" style="edgeStyle=orthogonalEdgeStyle;rounded=0;orthogonalLoop=1;jettySize=auto;html=1;fontFamily=Comic Sans MS;fontSize=26;" parent="1" source="DlJ1sKXZmMVKL5MGsRdI-3" target="DlJ1sKXZmMVKL5MGsRdI-5" edge="1">
                    <mxGeometry relative="1" as="geometry"/>
                </mxCell>
                <mxCell id="DlJ1sKXZmMVKL5MGsRdI-3" value="" style="ellipse;whiteSpace=wrap;html=1;aspect=fixed;fillColor=#f5f5f5;strokeColor=#666666;fontColor=#333333;" parent="1" vertex="1">
                    <mxGeometry x="565" y="600" width="40" height="40" as="geometry"/>
                </mxCell>
                <mxCell id="DlJ1sKXZmMVKL5MGsRdI-5" value="If the condition is&amp;nbsp;" style="rounded=1;whiteSpace=wrap;html=1;fontFamily=Comic Sans MS;fontSize=20;" parent="1" vertex="1">
                    <mxGeometry x="515" y="780" width="140" height="90" as="geometry"/>
                </mxCell>
                <mxCell id="DlJ1sKXZmMVKL5MGsRdI-7" value="Execute the body of the loop" style="rounded=1;whiteSpace=wrap;html=1;fontFamily=Comic Sans MS;fontSize=20;" parent="1" vertex="1">
                    <mxGeometry x="510" y="1060" width="150" height="110" as="geometry"/>
                </mxCell>
                <mxCell id="DlJ1sKXZmMVKL5MGsRdI-12" value="" style="group" parent="1" vertex="1" connectable="0">
                    <mxGeometry x="350" y="620" width="80" height="495" as="geometry"/>
                </mxCell>
                <mxCell id="DlJ1sKXZmMVKL5MGsRdI-9" style="edgeStyle=orthogonalEdgeStyle;rounded=0;orthogonalLoop=1;jettySize=auto;html=1;entryX=0;entryY=0.5;entryDx=0;entryDy=0;fontFamily=Comic Sans MS;fontSize=26;" parent="DlJ1sKXZmMVKL5MGsRdI-12" source="DlJ1sKXZmMVKL5MGsRdI-7" target="DlJ1sKXZmMVKL5MGsRdI-3" edge="1">
                    <mxGeometry relative="1" as="geometry">
                        <Array as="points">
                            <mxPoint x="40" y="495"/>
                            <mxPoint x="40"/>
                        </Array>
                    </mxGeometry>
                </mxCell>
                <mxCell id="DlJ1sKXZmMVKL5MGsRdI-11" value="Repeat the loop" style="text;html=1;strokeColor=#B20000;fillColor=#e51400;align=center;verticalAlign=middle;whiteSpace=wrap;rounded=0;fontFamily=Comic Sans MS;fontSize=20;fontColor=#ffffff;" parent="DlJ1sKXZmMVKL5MGsRdI-12" vertex="1">
                    <mxGeometry y="280" width="80" height="80" as="geometry"/>
                </mxCell>
                <mxCell id="DlJ1sKXZmMVKL5MGsRdI-13" value="End the loop" style="rounded=1;whiteSpace=wrap;html=1;fontFamily=Comic Sans MS;fontSize=20;" parent="1" vertex="1">
                    <mxGeometry x="515" y="1250" width="143" height="90" as="geometry"/>
                </mxCell>
                <mxCell id="DlJ1sKXZmMVKL5MGsRdI-16" value="" style="group" parent="1" vertex="1" connectable="0">
                    <mxGeometry x="780" y="825" width="70" height="530" as="geometry"/>
                </mxCell>
                <mxCell id="DlJ1sKXZmMVKL5MGsRdI-14" style="edgeStyle=orthogonalEdgeStyle;rounded=0;orthogonalLoop=1;jettySize=auto;html=1;entryX=1;entryY=0.5;entryDx=0;entryDy=0;fontFamily=Comic Sans MS;fontSize=26;" parent="DlJ1sKXZmMVKL5MGsRdI-16" source="DlJ1sKXZmMVKL5MGsRdI-5" target="DlJ1sKXZmMVKL5MGsRdI-13" edge="1">
                    <mxGeometry relative="1" as="geometry">
                        <Array as="points">
                            <mxPoint x="30"/>
                            <mxPoint x="30" y="470"/>
                        </Array>
                    </mxGeometry>
                </mxCell>
                <mxCell id="DlJ1sKXZmMVKL5MGsRdI-15" value="False" style="text;html=1;strokeColor=#B20000;fillColor=#e51400;align=center;verticalAlign=middle;whiteSpace=wrap;rounded=0;fontFamily=Comic Sans MS;fontSize=20;fontColor=#ffffff;" parent="DlJ1sKXZmMVKL5MGsRdI-16" vertex="1">
                    <mxGeometry y="55" width="70" height="40" as="geometry"/>
                </mxCell>
                <mxCell id="DlJ1sKXZmMVKL5MGsRdI-19" value="" style="group;fillColor=#e51400;strokeColor=#B20000;fontColor=#ffffff;" parent="1" vertex="1" connectable="0">
                    <mxGeometry x="550" y="920" width="70" height="40" as="geometry"/>
                </mxCell>
                <mxCell id="DlJ1sKXZmMVKL5MGsRdI-8" style="edgeStyle=orthogonalEdgeStyle;rounded=0;orthogonalLoop=1;jettySize=auto;html=1;entryX=0.5;entryY=0;entryDx=0;entryDy=0;fontFamily=Comic Sans MS;fontSize=26;" parent="DlJ1sKXZmMVKL5MGsRdI-19" source="DlJ1sKXZmMVKL5MGsRdI-5" target="DlJ1sKXZmMVKL5MGsRdI-7" edge="1">
                    <mxGeometry relative="1" as="geometry"/>
                </mxCell>
                <mxCell id="DlJ1sKXZmMVKL5MGsRdI-10" value="True" style="text;html=1;strokeColor=#B20000;fillColor=#e51400;align=center;verticalAlign=middle;whiteSpace=wrap;rounded=0;fontSize=20;fontFamily=Comic Sans MS;fontColor=#ffffff;" parent="DlJ1sKXZmMVKL5MGsRdI-19" vertex="1">
                    <mxGeometry width="70" height="40" as="geometry"/>
                </mxCell>
            </root>
        </mxGraphModel>
    </diagram>
</mxfile>